<?xml version="1.0" encoding="iso-8859-1"?>
<!-- Generator: Adobe Illustrator 19.0.0, SVG Export Plug-In . SVG Version: 6.00 Build 0)  -->
<svg version="1.1" id="Capa_1" xmlns="http://www.w3.org/2000/svg" xmlns:xlink="http://www.w3.org/1999/xlink" x="0px" y="0px"
	 viewBox="0 0 512 512" style="enable-background:new 0 0 512 512;" xml:space="preserve">
<circle style="fill:#F1333F;" cx="256" cy="256" r="256"/>
<path style="fill:#AE283F;" d="M67.695,176.018l306.896,306.896C456.264,440.141,512,354.586,512,256
	c0-20.753-2.487-40.922-7.148-60.243L456.695,147.6L259.524,85.071L67.695,176.018z"/>
<rect x="56.813" y="268.93" style="fill:#754C24;" width="154.69" height="126.92"/>
<rect x="133.93" y="268.93" style="fill:#603813;" width="77.58" height="126.92"/>
<path id="SVGCleanerId_0" style="fill:#F2D99C;" d="M216.455,387.725l-52.285-6.688c-6.418-0.821-11.227-6.284-11.227-12.755
	v-23.715h-37.771v23.715c0,6.471-4.809,11.934-11.227,12.755l-52.285,6.688c-4.56,0.583-8.788,2.113-12.511,4.365
	c31.058,49.384,78.503,87.422,134.723,106.452c25.969-5.669,49.912-16.759,70.577-32.033v-46.98
	C244.45,403.394,232.46,389.772,216.455,387.725z"/>
<g>
	<path id="SVGCleanerId_0_1_" style="fill:#F2D99C;" d="M216.455,387.725l-52.285-6.688c-6.418-0.821-11.227-6.284-11.227-12.755
		v-23.715h-37.771v23.715c0,6.471-4.809,11.934-11.227,12.755l-52.285,6.688c-4.56,0.583-8.788,2.113-12.511,4.365
		c31.058,49.384,78.503,87.422,134.723,106.452c25.969-5.669,49.912-16.759,70.577-32.033v-46.98
		C244.45,403.394,232.46,389.772,216.455,387.725z"/>
</g>
<path style="fill:#CEB784;" d="M216.455,387.725l-52.285-6.688c-6.418-0.821-11.227-6.284-11.227-12.755v-23.715h-19.015v136.501
	c12.703,6.906,26.055,12.772,39.944,17.474c25.969-5.669,49.912-16.759,70.577-32.033v-46.98
	C244.45,403.394,232.46,389.772,216.455,387.725z"/>
<path style="fill:#FFECB3;" d="M169.762,348.233l-10.286,5.539c-15.805,8.511-34.829,8.511-50.635,0l-10.286-5.539
	c-18.995-10.228-30.84-30.059-30.84-51.632v-63.445h132.886v63.445C200.602,318.174,188.757,338.005,169.762,348.233z"/>
<path style="fill:#FFD863;" d="M133.929,233.155v126.992c8.784,0.038,17.575-2.083,25.548-6.376l10.286-5.539
	c18.995-10.228,30.84-30.059,30.84-51.632v-63.445H133.929z"/>
<path style="fill:#008CC3;" d="M216.455,387.725l-44.25-5.661c-9.541,10.177-23.096,16.544-38.147,16.544
	s-28.606-6.367-38.146-16.544l-44.251,5.661c-4.56,0.583-8.788,2.113-12.511,4.365c43.38,68.977,118.748,115.794,205.3,119.638
	v-92.2C244.45,403.394,232.46,389.772,216.455,387.725z"/>
<path style="fill:#0074A3;" d="M244.45,419.529c0-16.135-11.99-29.757-27.995-31.804l-44.25-5.661
	c-9.541,10.177-23.096,16.544-38.147,16.544c-0.043,0-0.086-0.003-0.13-0.003v82.446c33.107,17.996,70.624,28.905,110.521,30.677
	L244.45,419.529L244.45,419.529z"/>
<path style="fill:#8C6239;" d="M133.885,175.231c-42.748,0.148-77.073,35.438-77.073,78.185v108.009l9.058-21.495
	c2.607-6.187,3.95-12.833,3.95-19.547v-43.239c69.2-8.767,94.664-40.582,94.664-40.582s9.374,22.289,34.013,40.662v43.159
	c0,6.714,1.343,13.36,3.95,19.547l9.058,21.495V252.577C211.505,209.769,176.728,175.083,133.885,175.231z"/>
<path style="fill:#754C24;" d="M211.505,252.577c0-42.794-34.754-77.469-77.577-77.345v83.392
	c21.632-10.916,30.555-22.062,30.555-22.062s9.374,22.289,34.013,40.662v43.159c0,6.714,1.343,13.36,3.95,19.547l9.058,21.495
	L211.505,252.577z"/>
<circle style="fill:#F2D99C;" cx="307.03" cy="262.72" r="18.63"/>
<circle style="fill:#D3BC88;" cx="437.75" cy="262.72" r="18.63"/>
<path style="fill:#F2D99C;" d="M481.354,377.547c-4.058-2.281-8.599-3.835-13.466-4.458l-60.597-7.752
	c-7.439-0.952-13.012-7.283-13.012-14.782V323.07h-43.775v27.485c0,7.5-5.573,13.831-13.012,14.782l-60.597,7.752
	c-18.549,2.373-32.445,18.16-32.445,36.86v28.09c31.12,29.526,72.448,48.395,118.142,50.769
	C413.228,465.585,454.983,426.337,481.354,377.547z"/>
<path style="fill:#D3BC88;" d="M481.354,377.547c-4.058-2.281-8.599-3.835-13.466-4.458l-60.597-7.752
	c-7.439-0.952-13.012-7.283-13.012-14.782V323.07h-21.888v161.471C418.083,460.931,456.534,423.468,481.354,377.547z"/>
<path style="fill:#FFECB3;" d="M408.096,334.474l-10.286,5.539c-15.805,8.511-34.829,8.511-50.635,0l-10.286-5.539
	c-18.995-10.228-30.84-30.059-30.84-51.632v-63.445h132.886v63.445C438.935,304.415,427.09,324.246,408.096,334.474z"/>
<path style="fill:#FFD863;" d="M438.935,219.396h-66.443v126.967c7.997,0.18,17.093-1.922,25.317-6.351l10.286-5.538
	c18.995-10.228,30.84-30.059,30.84-51.632V219.396z"/>
<path style="fill:#FFFFFF;" d="M467.888,373.089l-51.285-6.561c-11.057,11.795-26.768,19.175-44.211,19.175
	s-33.154-7.38-44.211-19.175l-51.285,6.561c-18.549,2.373-32.445,18.16-32.445,36.86v101.78c3.83,0.17,7.678,0.271,11.55,0.271
	c97.395,0,182.081-54.392,225.354-134.453C477.296,375.266,472.756,373.711,467.888,373.089z"/>
<path style="fill:#F2F2F2;" d="M481.354,377.547c-4.058-2.281-8.599-3.835-13.466-4.458l-51.285-6.561
	c-11.057,11.795-26.768,19.175-44.211,19.175v98.366C418.616,460.433,456.703,423.155,481.354,377.547z"/>
<g>
	<path style="fill:#E0E0E0;" d="M369.237,385.62c-16.177-0.831-30.67-8.012-41.056-19.091l-22.132,2.831l35.045,45.224
		l31.298-28.866C371.332,385.718,370.281,385.684,369.237,385.62z"/>
	<path style="fill:#E0E0E0;" d="M372.392,385.718l31.298,28.866l35.045-45.224l-22.132-2.831
		c-10.386,11.079-24.879,18.261-41.056,19.091C374.503,385.684,373.452,385.718,372.392,385.718z"/>
</g>
<path style="fill:#4D4D4D;" d="M438.168,291.042h11.671v-52.224c0-42.808-34.777-77.494-77.62-77.346
	c-42.748,0.148-77.073,35.437-77.073,78.185v51.384h10.903v-36.089c50.606,6.555,90.662-29.646,90.662-29.646
	s17.56,34.022,41.456,40.056v25.68H438.168z"/>
<path style="fill:#333333;" d="M372.219,161.472c-0.265,0.001-0.526,0.019-0.79,0.023l1.064,79.994
	c15.703-8.08,24.22-16.183,24.22-16.183s17.561,34.022,41.456,40.056v25.679h11.671v-52.223
	C449.839,196.01,415.062,161.324,372.219,161.472z"/>
<path style="fill:#FFFFFF;" d="M328.863,453.029v-89.541c0-36.928-29.936-66.863-66.863-66.863
	c-36.928,0-66.864,29.936-66.864,66.863v129.309L328.863,453.029z"/>
<g>
	<path style="fill:#E0E0E0;" d="M328.863,363.489c0-36.928-29.936-66.863-66.863-66.863c-0.032,0-0.063,0.002-0.095,0.002v176.314
		l66.959-19.913v-89.54H328.863z"/>
	<path style="fill:#E0E0E0;" d="M195.137,504.701C214.646,509.459,235.025,512,256,512c25.317,0,49.768-3.693,72.863-10.539v-67.243
		l-133.727,49.294L195.137,504.701L195.137,504.701z"/>
</g>
<path style="fill:#C0C0C0;" d="M328.863,434.218L261.905,458.9v53.025c23.215-0.528,45.664-4.152,66.959-10.463v-67.244H328.863z"/>
<polygon style="fill:#CCCCCC;" points="195.137,489.342 328.863,440.048 328.863,364.361 195.137,413.654 "/>
<polygon style="fill:#B3B3B3;" points="328.863,364.361 261.905,389.042 261.905,464.73 328.863,440.048 "/>
<path style="fill:#FFECB3;" d="M262,427.759L262,427.759c-23.645,0-42.814-19.168-42.814-42.814v-20.663
	c0-23.645,19.168-42.814,42.814-42.814l0,0c23.645,0,42.814,19.168,42.814,42.814v20.663
	C304.814,408.591,285.645,427.759,262,427.759z"/>
<path style="fill:#FFD863;" d="M262,321.468L262,321.468c-0.032,0-0.063,0.002-0.095,0.002v106.286c0.032,0,0.063,0.002,0.095,0.002
	l0,0c23.645,0,42.814-19.168,42.814-42.814v-20.663C304.814,340.636,285.645,321.468,262,321.468z"/>
<path style="fill:#FF6838;" d="M262,321.468L262,321.468c-23.645,0-42.814,19.168-42.814,42.814v11.157
	c37.952,7.16,59.199-18.821,59.199-18.821c8.864,13.943,18.215,21.504,26.428,25.515v-17.851
	C304.814,340.636,285.645,321.468,262,321.468z"/>
<path style="fill:#AE4E32;" d="M262,321.468c-0.032,0-0.063,0.002-0.095,0.002v47.838c10.768-5.725,16.481-12.691,16.481-12.691
	c8.864,13.943,18.215,21.504,26.428,25.515v-17.851C304.814,340.636,285.645,321.468,262,321.468z"/>
<polygon style="fill:#FFFFFF;" points="67.695,176.018 55.305,147.602 256,60.091 456.695,147.6 444.305,176.016 256,93.909 "/>
<polygon style="fill:#E0E0E0;" points="256,60.091 255.952,60.111 255.952,93.93 256,93.909 444.305,176.016 456.695,147.6 "/>
<g>
</g>
<g>
</g>
<g>
</g>
<g>
</g>
<g>
</g>
<g>
</g>
<g>
</g>
<g>
</g>
<g>
</g>
<g>
</g>
<g>
</g>
<g>
</g>
<g>
</g>
<g>
</g>
<g>
</g>
</svg>
