<?xml version="1.0" encoding="iso-8859-1"?>
<!-- Generator: Adobe Illustrator 19.0.0, SVG Export Plug-In . SVG Version: 6.00 Build 0)  -->
<svg version="1.1" id="Capa_1" xmlns="http://www.w3.org/2000/svg" xmlns:xlink="http://www.w3.org/1999/xlink" x="0px" y="0px"
	 viewBox="0 0 491.52 491.52" style="enable-background:new 0 0 491.52 491.52;" xml:space="preserve">
<g>
	<defs>
		<filter id="Adobe_OpacityMaskFilter" filterUnits="userSpaceOnUse" x="315.116" y="296.11" width="13.701" height="24.433">
			<feColorMatrix  type="matrix" values="1 0 0 0 0  0 1 0 0 0  0 0 1 0 0  0 0 0 1 0"/>
		</filter>
	</defs>
	<mask maskUnits="userSpaceOnUse" x="315.116" y="296.11" width="13.701" height="24.433" id="SVGID_1_">
	</mask>
	
		<radialGradient id="SVGID_4_" cx="15.2143" cy="-771.2862" r="1.338" gradientTransform="matrix(5.12 0 0 -9.129 244.0688 -6732.7856)" gradientUnits="userSpaceOnUse">
		<stop  offset="0" style="stop-color:#FFFFFF"/>
		<stop  offset="0.114" style="stop-color:#FBFBFB"/>
		<stop  offset="0.238" style="stop-color:#EDEDED"/>
		<stop  offset="0.367" style="stop-color:#D8D8D8"/>
		<stop  offset="0.5" style="stop-color:#B9B9B9"/>
		<stop  offset="0.635" style="stop-color:#919191"/>
		<stop  offset="0.773" style="stop-color:#616161"/>
		<stop  offset="0.909" style="stop-color:#292929"/>
		<stop  offset="1" style="stop-color:#000000"/>
	</radialGradient>
	<ellipse style="mask:url(#SVGID_1_);fill:url(#SVGID_4_);" cx="321.966" cy="308.326" rx="6.851" ry="12.216"/>
</g>
<g>
	<defs>
		<filter id="Adobe_OpacityMaskFilter_1_" filterUnits="userSpaceOnUse" x="235.689" y="120.064" width="20.142" height="20.142">
			<feColorMatrix  type="matrix" values="1 0 0 0 0  0 1 0 0 0  0 0 1 0 0  0 0 0 1 0"/>
		</filter>
	</defs>
	<mask maskUnits="userSpaceOnUse" x="235.689" y="120.064" width="20.142" height="20.142" id="SVGID_6_">
	</mask>
	
		<radialGradient id="SVGID_5_" cx="0.3303" cy="588.1946" r="1.967" gradientTransform="matrix(5.12 0 0 -5.12 244.0688 3141.6912)" gradientUnits="userSpaceOnUse">
		<stop  offset="0" style="stop-color:#FFFFFF"/>
		<stop  offset="0.114" style="stop-color:#FBFBFB"/>
		<stop  offset="0.238" style="stop-color:#EDEDED"/>
		<stop  offset="0.367" style="stop-color:#D8D8D8"/>
		<stop  offset="0.5" style="stop-color:#B9B9B9"/>
		<stop  offset="0.635" style="stop-color:#919191"/>
		<stop  offset="0.773" style="stop-color:#616161"/>
		<stop  offset="0.909" style="stop-color:#292929"/>
		<stop  offset="1" style="stop-color:#000000"/>
	</radialGradient>
	<circle style="mask:url(#SVGID_6_);fill:url(#SVGID_5_);" cx="245.76" cy="130.135" r="10.071"/>
</g>
<circle style="fill:#E05B49;" cx="245.76" cy="245.76" r="245.76"/>
<path style="opacity:0.1;enable-background:new    ;" d="M275.975,117.627c-7.685-7.816-18.365-12.681-30.215-12.681
	c-23.45,0-42.394,18.995-42.394,42.445c0,10.505,3.84,20.103,10.17,27.511l-0.002,0.002l0.04,0.041
	c1.43,1.669,2.984,3.225,4.655,4.654l24.727,24.728h-43.48v0.101c-25.242,1.588-45.312,22.631-45.312,48.334v63.026
	c0.16,3.269,1.485,6.191,3.507,8.47l0.001,0.002c0.399,0.45,0.815,0.875,1.269,1.269l35.978,35.977v25.041l100.04,100.04
	c87.285-17.737,157.722-81.747,184.684-165.296L275.976,117.624L275.975,117.627z"/>
<path style="fill:#3A556A;" d="M288.93,204.328h-86.34c-26.695,0-48.415,21.717-48.415,48.412v63.027h30.761V252.74
	c0-6.971,4.073-12.996,9.956-15.864V386.56h101.731V236.876c5.886,2.866,9.961,8.892,9.961,15.864v96.878
	c0,8.495,6.884,15.381,15.378,15.381c8.495,0,15.381-6.886,15.381-15.381V252.74C337.344,226.045,315.625,204.328,288.93,204.328z"
	/>
<circle style="fill:#FCD462;" cx="245.76" cy="147.379" r="42.419"/>
<path style="fill:#EBF0F3;" d="M287.83,143.93h-84.141c-0.011,0.138-0.033,0.274-0.042,0.415l84.489,2.62
	C288.127,145.928,287.914,144.948,287.83,143.93z"/>
<path style="fill:#FFFFFF;" d="M203.689,143.93h84.141c-0.892-10.895-5.778-20.588-13.343-27.592h-57.455
	C209.467,123.343,204.582,133.036,203.689,143.93z"/>
<radialGradient id="SVGID_7_" cx="0.3303" cy="588.1946" r="1.967" gradientTransform="matrix(5.12 0 0 -5.12 244.0688 3141.6912)" gradientUnits="userSpaceOnUse">
	<stop  offset="0" style="stop-color:#CE412D"/>
	<stop  offset="1" style="stop-color:#CE412D"/>
</radialGradient>
<circle style="fill:url(#SVGID_7_);" cx="245.76" cy="130.135" r="10.071"/>
<polygon style="fill:#EBF0F3;" points="337.343,325.051 306.584,326.884 306.584,308.314 337.343,308.314 "/>
<rect x="306.586" y="306.483" style="fill:#FFFFFF;" width="30.771" height="18.57"/>
<polygon style="fill:#EBF0F3;" points="337.343,316.683 306.584,318.515 306.584,299.945 337.343,299.945 "/>
<rect x="306.586" y="298.138" style="fill:#FFFFFF;" width="30.771" height="18.57"/>
<polygon style="fill:#EBF0F3;" points="337.343,308.314 306.584,310.147 306.584,291.577 337.343,291.577 "/>
<rect x="306.586" y="289.741" style="fill:#FFFFFF;" width="30.771" height="18.57"/>
<radialGradient id="SVGID_8_" cx="15.2143" cy="-771.2862" r="1.338" gradientTransform="matrix(5.12 0 0 -9.129 244.0688 -6732.7856)" gradientUnits="userSpaceOnUse">
	<stop  offset="0" style="stop-color:#CE412D"/>
	<stop  offset="1" style="stop-color:#CE412D"/>
</radialGradient>
<ellipse style="fill:url(#SVGID_8_);" cx="321.966" cy="308.326" rx="6.851" ry="12.216"/>
<path style="fill:#64798A;" d="M249.611,328.874c9.343,0,16.74-8.332,15.17-17.967c-1.232-7.562-8.335-12.794-15.996-12.794h-94.609
	v17.084c0,7.554,6.124,13.678,13.678,13.678H249.611z"/>
<polygon style="fill:#EBF0F3;" points="220.182,204.328 202.635,204.328 193.063,328.874 247.3,328.874 "/>
<polygon style="fill:#FFFFFF;" points="217.025,204.328 199.478,204.328 189.907,328.874 244.144,328.874 "/>
<g>
</g>
<g>
</g>
<g>
</g>
<g>
</g>
<g>
</g>
<g>
</g>
<g>
</g>
<g>
</g>
<g>
</g>
<g>
</g>
<g>
</g>
<g>
</g>
<g>
</g>
<g>
</g>
<g>
</g>
</svg>
