<?xml version="1.0" encoding="UTF-8" standalone="no"?>
<!-- Created with Inkscape (http://www.inkscape.org/) -->

<svg
   xmlns:dc="http://purl.org/dc/elements/1.1/"
   xmlns:cc="http://creativecommons.org/ns#"
   xmlns:rdf="http://www.w3.org/1999/02/22-rdf-syntax-ns#"
   xmlns:svg="http://www.w3.org/2000/svg"
   xmlns="http://www.w3.org/2000/svg"
   xmlns:sodipodi="http://sodipodi.sourceforge.net/DTD/sodipodi-0.dtd"
   xmlns:inkscape="http://www.inkscape.org/namespaces/inkscape"
   width="210mm"
   height="297mm"
   viewBox="0 0 210 297"
   version="1.1"
   id="svg8"
   inkscape:version="0.92.2 (5c3e80d, 2017-08-06)"
   sodipodi:docname="LedbetterLogo1.svg"
   inkscape:export-filename="C:\Users\separ\Desktop\Front End Development\Projects\Ledbetter\Images\LedbetterLogo.png"
   inkscape:export-xdpi="96"
   inkscape:export-ydpi="96">
  <defs
     id="defs2">
    <clipPath
       id="clipEmfPath1"
       clipPathUnits="userSpaceOnUse">
      <path
         id="path4074"
         d="M 0,0 L 261.10236,0 L 261.10236,219.32598 L 0,219.32598 z" />
    </clipPath>
    <pattern
       y="0"
       x="0"
       height="6"
       width="6"
       patternUnits="userSpaceOnUse"
       id="EMFhbasepattern" />
    <clipPath
       id="clipEmfPath1-4"
       clipPathUnits="userSpaceOnUse">
      <path
         id="path4098"
         d="M 0,0 L 261.10236,0 L 261.10236,219.32598 L 0,219.32598 z" />
    </clipPath>
    <pattern
       y="0"
       x="0"
       height="6"
       width="6"
       patternUnits="userSpaceOnUse"
       id="EMFhbasepattern-7" />
  </defs>
  <sodipodi:namedview
     id="base"
     pagecolor="#ffffff"
     bordercolor="#666666"
     borderopacity="1.0"
     inkscape:pageopacity="0.0"
     inkscape:pageshadow="2"
     inkscape:zoom="1"
     inkscape:cx="594.88747"
     inkscape:cy="754.28571"
     inkscape:document-units="px"
     inkscape:current-layer="svg8"
     showgrid="false"
     showguides="true"
     inkscape:window-width="1920"
     inkscape:window-height="1017"
     inkscape:window-x="-8"
     inkscape:window-y="-8"
     inkscape:window-maximized="1">
    <inkscape:grid
       type="xygrid"
       id="grid3848"
       snapvisiblegridlinesonly="false" />
  </sodipodi:namedview>
  <metadata
     id="metadata5">
    <rdf:RDF>
      <cc:Work
         rdf:about="">
        <dc:format>image/svg+xml</dc:format>
        <dc:type
           rdf:resource="http://purl.org/dc/dcmitype/StillImage" />
        <dc:title />
      </cc:Work>
    </rdf:RDF>
  </metadata>
  <rect
     style="fill:#162252;fill-opacity:1;stroke-width:0.26458332"
     id="rect4247"
     width="82.285416"
     height="71.70208"
     x="68.527084"
     y="32.681252"
     ry="0.52916664" />
  <path
     id="rect4121-2"
     style="fill:#c8ab37;stroke-width:0.25653154"
     d="m 83.834424,40.247404 0.9962,2.50229 49.052546,0.0665 0.93161,-2.56883 z m 1.39996,3.77083 1.5057,4.600353 10.14317,0.0665 v 33.75402 c 0.0771,1.39026 -0.31762,2.74617 -1.05265,3.61631 -0.54319,0.63931 -1.22599,0.95975 -1.91823,0.90021 v 0.005 h -11.25204 v -0.0408 c -1.58316,-0.0832 -2.84261,-2.37168 -2.84427,-5.16816 3.7e-4,-0.15461 0.005,-0.3091 0.0129,-0.46302 h -3.18895 l 0.65875,5.78 0.61669,4.77284 24.091836,-1e-5 v -4.62401 -38.53201 h 2.30581 v 43.1555 h 3.97081 v -43.1555 h 2.75384 v 43.28418 h 3.97081 v -43.28418 h 2.36989 v 38.3713 h -0.0109 v 4.88084 l 24.233,0.10553 0.47053,-4.88973 0.0108,-0.18821 0.65875,-5.59183 h -2.86442 c 0.01,0.16157 0.0147,0.32384 0.0155,0.48627 1e-5,2.85865 -1.31253,5.17602 -2.93161,5.17591 -0.0801,-0.001 -0.16005,-0.008 -0.23978,-0.0212 v 0.0424 h -11.13678 c -0.16692,0.0221 -0.33485,0.0221 -0.50178,0 -1.36689,-0.18946 -2.44376,-1.81 -2.55178,-3.84007 h -0.0279 v -34.53122 l 9.65436,0.0665 1.39741,-4.666903 z m -7.1781,49.107083 0.28232,2.56883 62.760016,0.0803 0.32938,-2.508 z"
     inkscape:connector-curvature="0"
     sodipodi:nodetypes="cccccccccccccccccccccccccccccccccccccccccccccccccccccccc" />
</svg>
