<?xml version="1.0" encoding="iso-8859-1"?>
<!-- Generator: Adobe Illustrator 19.0.0, SVG Export Plug-In . SVG Version: 6.00 Build 0)  -->
<svg version="1.1" id="Capa_1" xmlns="http://www.w3.org/2000/svg" xmlns:xlink="http://www.w3.org/1999/xlink" x="0px" y="0px"
	 viewBox="0 0 491.52 491.52" style="enable-background:new 0 0 491.52 491.52;" xml:space="preserve">
<circle style="fill:#334D5C;" cx="245.76" cy="245.76" r="245.76"/>
<path style="opacity:0.1;enable-background:new    ;" d="M491.355,252.313l-121.537-121.51
	c-13.158-15.821-33.024-25.856-55.194-25.856c-29.235,0-54.426,17.407-65.638,42.496l-18.125-18.125l-0.154-0.154
	c-13.158-14.847-32.41-24.218-53.811-24.218c-39.731,0-71.936,32.205-71.936,71.936c0,20.378,8.499,38.809,22.17,51.916
	l85.402,85.453c-0.819,0.666-1.69,1.382-2.56,2.202c-14.285,4.25-38.963,12.698-46.746,22.579
	c-6.246,7.987-9.062,27.495-10.189,38.912c-0.205,2.048,0.41,3.994,1.638,5.529l107.444,107.445
	C388.051,482.632,488.014,379.535,491.355,252.313z"/>
<circle style="fill:#E56353;" cx="314.624" cy="176.891" r="71.936"/>
<polygon style="fill:#FFFFFF;" points="360.858,160.529 330.991,160.529 330.991,130.662 298.268,130.662 298.268,160.529 
	268.4,160.529 268.4,193.253 298.268,193.253 298.268,223.12 330.991,223.12 330.991,193.253 360.858,193.253 "/>
<circle style="fill:#FCD462;" cx="176.891" cy="176.891" r="71.936"/>
<g>
	<path style="fill:#F6C358;" d="M176.891,239.068c-34.285,0-62.177-27.893-62.177-62.177c0-34.282,27.892-62.175,62.177-62.175
		c34.285,0,62.177,27.893,62.177,62.175C239.068,211.175,211.175,239.068,176.891,239.068z M176.891,122.327
		c-30.088,0-54.566,24.476-54.566,54.563s24.478,54.566,54.566,54.566c30.088,0,54.566-24.478,54.566-54.566
		S206.979,122.327,176.891,122.327z"/>
	<path style="fill:#F6C358;" d="M174.784,216.637v-7c-8.763-0.893-16.629-4.378-23.59-10.449l7-8.342
		c5.369,4.666,10.894,7.444,16.59,8.342v-18.604c-7.226-1.724-12.517-3.995-15.872-6.809c-3.356-2.813-5.033-6.984-5.033-12.513
		c0-5.529,1.928-10.051,5.798-13.571c3.87-3.515,8.904-5.431,15.108-5.751v-4.795h6.134v4.889c7.031,0.515,13.68,2.911,19.946,7.195
		l-6.235,8.822c-4.222-3.004-8.787-4.858-13.711-5.564v18.026h0.289c7.351,1.729,12.751,4.062,16.2,7
		c3.457,2.942,5.181,7.21,5.181,12.802c0,5.595-1.982,10.152-5.946,13.664c-3.964,3.519-9.2,5.435-15.724,5.755v6.902H174.784z
		 M168.018,154.743c-1.631,1.436-2.443,3.227-2.443,5.369c0,2.142,0.64,3.835,1.92,5.08c1.272,1.248,3.706,2.446,7.288,3.597v-16.59
		C171.904,152.457,169.649,153.304,168.018,154.743z M188.206,196.789c1.787-1.467,2.684-3.32,2.684-5.56
		c0-2.236-0.702-4.011-2.107-5.322c-1.413-1.311-4.035-2.54-7.866-3.691v17.257C183.985,199.157,186.411,198.26,188.206,196.789z"/>
</g>
<g>
	<path style="fill:#44C4A1;" d="M209.021,378.952l-0.677-1.101c-0.217,0.37-0.42,0.75-0.666,1.094
		C208.12,378.981,208.568,378.984,209.021,378.952z"/>
	<path style="fill:#44C4A1;" d="M201.295,340.954l6.568-17.099c-3.54,4.313-6.759,9.831-8.298,16.709
		C200.146,340.633,200.722,340.772,201.295,340.954z"/>
	<path style="fill:#44C4A1;" d="M205.172,378.332c0.703-0.803,1.311-1.706,1.79-2.725l-5.989-9.733l7.214-11.421
		c-0.046-0.289-0.087-0.541-0.129-0.779l-0.114,0.024c-0.275,0.057-0.539-0.118-0.605-0.391c-0.508-2.132-1.411-4.057-2.603-5.626
		l-6.946,2.394l2.249-5.854c-0.894-0.25-1.794-0.326-2.664-0.145c-4.144,0.861-6.535,6.382-5.462,12.436
		c0.047,0.262-0.116,0.504-0.366,0.578C192.722,361.225,197.229,375.153,205.172,378.332z"/>
	<path style="fill:#44C4A1;" d="M214.612,344.277l-6.505,2.242c0.913,1.388,1.645,2.937,2.175,4.614L214.612,344.277z"/>
	<path style="fill:#44C4A1;" d="M210.348,381.11c-0.647,0.112-1.293,0.209-1.931,0.209c-0.885,0-1.756-0.143-2.621-0.359
		c-2.131,1.855-4.805,2.828-8.039,2.828c-1.404,0-2.925-0.201-4.529-0.553c-0.068,0.228-0.258,0.4-0.498,0.421
		c-1.044,0.095-3.707,0.253-4.254-0.509c-0.631-0.881,0.021-3.71,0.975-4.226c0.827-0.445,3.149,0.864,4.047,1.406
		c0.217,0.132,0.322,0.387,0.266,0.633l-0.003,0.013c3.896,0.845,7.038,0.488,9.423-0.997c-8.354-4.369-12.764-18.282-13.906-22.401
		l-0.144,0.03c-0.284,0.058-0.566-0.127-0.617-0.412c-1.373-7.607,1.884-14.679,7.456-16.33c2.209-11.237,8.36-19.201,14.004-24.388
		c-14.285,4.221-38.969,12.665-46.74,22.573c-6.26,7.982-9.073,27.491-10.217,38.874c-0.466,4.636,3.176,8.637,7.835,8.637h52.849
		L210.348,381.11z"/>
	<path style="fill:#44C4A1;" d="M218.799,314.046l1.677-0.458c0,0-0.575,0.141-1.599,0.407
		C218.851,314.011,218.825,314.029,218.799,314.046z"/>
	<polygon style="fill:#44C4A1;" points="220.476,313.588 220.48,313.628 220.48,313.599 	"/>
	<path style="fill:#44C4A1;" d="M328.283,339.049c-7.916-10.093-33.409-18.678-47.553-22.816l0.55,1.433
		c5.078,6.073,8.197,14.243,9.362,24.372l3.087,8.037l-2.61-0.9c0.077,3.02,0.029,6.164-0.192,9.476l0.141,0.012
		c0.236,0.021,0.411,0.228,0.39,0.464l-0.297,3.396c3.379,1.658,5.71,5.122,5.71,9.139c0,6.008-5.202,10.801-11.348,10.12
		c-1.424-0.157-2.746-0.648-3.937-1.345l-3.768,6.124h52.85c4.659,0,8.301-4.002,7.835-8.637
		C337.356,366.54,334.543,347.031,328.283,339.049z"/>
	<path style="fill:#44C4A1;" d="M287.322,358.335l0.168,0.015c0.246-3.746,0.292-7.201,0.157-10.372l-10.74-3.701l9.85,15.596
		l0.1-1.148C286.878,358.49,287.087,358.315,287.322,358.335z"/>
	<path style="fill:#44C4A1;" d="M280.709,316.228c-0.343-0.1-0.655-0.189-0.984-0.284c0.007,0.007,0.014,0.014,0.02,0.022
		L280.709,316.228z"/>
</g>
<g>
	<polygon style="fill:#E1E6E9;" points="241.781,345.777 236.8,334.694 223.744,344.25 228.253,386.56 238.71,386.56 
		235.638,357.348 	"/>
	<polygon style="fill:#E1E6E9;" points="254.72,334.694 249.738,345.777 255.881,357.348 252.81,386.56 263.268,386.56 
		267.776,344.25 	"/>
</g>
<g>
	<path style="fill:#F6C358;" d="M282.426,263.131c0,5.425-0.871,10.948-2.392,16.268c0.398,0.238,0.821,0.418,1.275,0.513
		c3.786,0.788,7.989-4.024,9.387-10.747c1.398-6.723-0.538-12.811-4.324-13.599c-0.999-0.207-2.024-0.005-3.022,0.499L282,256.991
		C282.252,258.958,282.426,260.984,282.426,263.131z"/>
	<path style="fill:#F6C358;" d="M209.506,257.092l-0.012-0.016l-1.726-1.186c-0.87-0.361-1.756-0.505-2.621-0.326
		c-3.786,0.788-5.722,6.876-4.324,13.599c1.398,6.724,5.601,11.535,9.387,10.747c0.454-0.094,0.877-0.274,1.274-0.513
		c-1.521-5.32-2.391-10.843-2.391-16.268C209.094,261.02,209.263,259.028,209.506,257.092z"/>
</g>
<path style="fill:#FCD462;" d="M245.76,313.486c9.495,0,18.12-5.812,24.632-14.43c4.249-5.622,7.577-12.429,9.642-19.658
	c1.521-5.32,2.392-10.843,2.392-16.268c0-2.147-0.175-4.172-0.426-6.139l-0.123,0.085l-2.834,3.442l-9.351-18.092h-48.012
	l-9.35,18.092l-2.823-3.426c-0.244,1.936-0.413,3.928-0.413,6.039c0,5.425,0.87,10.948,2.391,16.268
	c2.067,7.229,5.394,14.034,9.643,19.657C227.64,307.674,236.264,313.486,245.76,313.486z"/>
<g>
	<path style="fill:#64798A;" d="M209.506,257.092l2.823,3.426l9.35-18.092h-13.388c-1.668,6.693-0.612,13.404-0.612,13.404
		l0.089,0.061l1.726,1.186L209.506,257.092z"/>
	<path style="fill:#64798A;" d="M269.691,242.426l9.351,18.092l2.834-3.442l0.123-0.085l1.351-0.928l0.341-0.234
		c0,0,0.492-6.911-1.266-13.702v0.298H269.691z"/>
</g>
<path style="fill:#44C4A1;" d="M269.691,242.426h12.735v-0.298v-44.273c-24.712-13.353-49.424-13.353-74.135,0v44.571h0.574h12.813
	H269.691z M245.359,196.875c10.084,0,18.258,8.174,18.258,18.258c0,10.083-8.174,18.258-18.258,18.258
	c-10.083,0-18.258-8.175-18.258-18.258C227.101,205.049,235.275,196.875,245.359,196.875z"/>
<path style="fill:#FFFFFF;" d="M245.359,233.392c10.084,0,18.258-8.175,18.258-18.258c0-10.084-8.174-18.258-18.258-18.258
	c-10.083,0-18.258,8.174-18.258,18.258C227.101,225.217,235.275,233.392,245.359,233.392z M233.218,211.374h8.381v-8.381h3.76h3.759
	v8.381h8.381v7.519h-8.381v8.382h-3.759h-3.76v-8.382h-8.381V211.374z"/>
<polygon style="fill:#E56353;" points="241.599,227.274 245.359,227.274 245.359,202.993 241.599,202.993 241.599,211.374 
	233.218,211.374 233.218,218.892 241.599,218.892 "/>
<polygon style="fill:#D15241;" points="249.118,227.274 249.118,218.892 257.499,218.892 257.499,211.374 249.118,211.374 
	249.118,202.993 245.359,202.993 245.359,227.274 "/>
<g>
	<path style="fill:#3EA69B;" d="M204.736,347.68c-0.44-0.58-0.913-1.118-1.43-1.59c-1.038-0.948-2.149-1.555-3.267-1.869
		l-2.249,5.854L204.736,347.68z"/>
	<path style="fill:#3EA69B;" d="M206.962,375.606c3.069-6.521,1.937-16.685,1.224-21.154l-7.214,11.421L206.962,375.606z"/>
	<path style="fill:#3EA69B;" d="M220.48,313.628l-0.004-0.039l-1.677,0.458c-2.897,1.895-7.094,5.127-10.936,9.809l-6.568,17.099
		c1.518,0.482,2.993,1.341,4.347,2.578c0.934,0.852,1.738,1.882,2.465,2.988l6.505-2.242l-4.33,6.856
		c0.152,0.481,0.329,0.948,0.446,1.446c0.066,0.282-0.119,0.563-0.402,0.623c0.772,4.326,2.489,17.022-1.982,24.649l0.677,1.101
		c2.315-0.164,4.751-1.229,7.281-3.194c-0.133-0.204-0.135-0.466,0.01-0.663c0.621-0.845,2.264-2.946,3.198-2.85
		c1.079,0.11,2.766,2.471,2.521,3.528c-0.214,0.915-2.733,1.789-3.734,2.102c-0.242,0.076-0.503-0.014-0.65-0.22l-0.021-0.03
		c-2.474,1.905-4.906,3.073-7.278,3.484l3.355,5.45h14.55l-4.509-42.31L220.48,313.628z"/>
	<path style="fill:#3EA69B;" d="M280.86,317.111c0.151,0.173,0.272,0.378,0.419,0.555l-0.55-1.433h-0.001l-0.02-0.005l-0.964-0.263
		C280.118,316.348,280.49,316.687,280.86,317.111z"/>
	<path style="fill:#3EA69B;" d="M276.566,372.834c-0.686-6.127,4.071-11.315,10.051-11.354l0.14-1.607l-9.85-15.596l10.74,3.701
		c-0.971-22.84-10.906-31.337-16.609-34.342l-3.262,30.613l-4.508,42.31h14.549l3.768-6.124
		C278.877,378.851,276.928,376.074,276.566,372.834z"/>
	<path style="fill:#3EA69B;" d="M293.729,350.074l-3.087-8.037c0.262,2.277,0.414,4.663,0.477,7.137L293.729,350.074z"/>
</g>
<polygon style="fill:#E56353;" points="249.738,345.777 254.72,334.694 245.76,328.137 236.8,334.694 241.781,345.777 
	235.638,357.348 238.71,386.56 245.76,386.56 252.81,386.56 255.881,357.348 "/>
<path style="fill:#2F4859;" d="M271.039,313.63l0,0.006c5.703,3.005,15.637,11.503,16.609,34.342
	c0.135,3.17,0.09,6.625-0.157,10.372l3.437,0.3c0.221-3.312,0.269-6.455,0.192-9.476c-0.063-2.474-0.215-4.86-0.477-7.137
	c-1.166-10.129-4.284-18.298-9.362-24.372c-0.147-0.176-0.269-0.382-0.419-0.555c-0.37-0.424-0.742-0.763-1.115-1.146
	c-0.006-0.007-0.013-0.014-0.02-0.022c-3.267-3.362-6.517-5.232-8.831-6.206c0.102,1.15,0.146,2.453,0.145,3.862L271.039,313.63z"/>
<path style="fill:#E1E6E9;" d="M208.058,353.673c0.041,0.239,0.082,0.49,0.129,0.779c0.713,4.469,1.845,14.633-1.224,21.154
	c-0.48,1.019-1.088,1.922-1.79,2.725c-7.943-3.179-12.449-17.106-13.624-21.243c-0.013,0.004-0.018,0.02-0.033,0.022l-2.237,0.465
	c1.142,4.119,5.552,18.031,13.906,22.401c-2.384,1.485-5.527,1.842-9.423,0.997l-0.516,2.231l-0.018,0.031
	c1.605,0.352,3.125,0.553,4.529,0.553c3.234,0,5.908-0.973,8.039-2.828c0.865,0.216,1.737,0.359,2.621,0.359
	c0.637,0,1.284-0.097,1.931-0.209c2.372-0.411,4.804-1.579,7.278-3.484l-1.317-1.844c-0.005-0.008-0.003-0.017-0.008-0.025
	c-2.53,1.965-4.966,3.03-7.281,3.194c-0.453,0.033-0.901,0.029-1.343-0.007c0.246-0.344,0.449-0.724,0.666-1.094
	c4.471-7.627,2.755-20.323,1.982-24.649h-0.001L208.058,353.673z"/>
<path style="fill:#2F4859;" d="M195.972,340.863c-5.572,1.651-8.829,8.723-7.456,16.33c0.052,0.285,0.334,0.471,0.617,0.412
	l0.144-0.03l2.237-0.465c0.014-0.003,0.02-0.018,0.033-0.022c0.25-0.074,0.413-0.315,0.366-0.578
	c-1.073-6.054,1.318-11.575,5.462-12.436c0.87-0.181,1.769-0.105,2.664,0.145c1.118,0.314,2.229,0.921,3.267,1.869
	c0.517,0.472,0.99,1.011,1.43,1.59c1.192,1.569,2.095,3.494,2.603,5.626c0.065,0.272,0.33,0.448,0.605,0.391l0.114-0.024
	l2.268-0.471h0.001c0.283-0.06,0.467-0.341,0.402-0.623c-0.117-0.498-0.294-0.965-0.446-1.446c-0.53-1.677-1.262-3.227-2.175-4.614
	c-0.728-1.105-1.531-2.136-2.465-2.988c-1.354-1.237-2.829-2.097-4.347-2.578c-0.572-0.182-1.148-0.32-1.73-0.39
	c1.539-6.878,4.758-12.396,8.298-16.709c3.843-4.682,8.039-7.913,10.936-9.809c0.026-0.017,0.052-0.035,0.078-0.051
	c0.596-0.388,1.149-0.736,1.614-1.011c0.013-1.527,0.09-2.902,0.238-4.085c-0.882,0.428-5.578,2.823-10.752,7.577
	C204.332,321.663,198.181,329.627,195.972,340.863z"/>
<g>
	<path style="fill:#64798A;" d="M217.627,377.626l0.021,0.03c0.147,0.205,0.408,0.295,0.65,0.22c1.001-0.313,3.52-1.187,3.734-2.102
		c0.245-1.057-1.442-3.418-2.521-3.528c-0.934-0.096-2.578,2.005-3.198,2.85c-0.145,0.197-0.143,0.459-0.01,0.663
		c0.005,0.007,0.003,0.017,0.008,0.025L217.627,377.626z"/>
	<path style="fill:#64798A;" d="M193.761,380.973l0.003-0.013c0.056-0.247-0.049-0.502-0.266-0.633
		c-0.898-0.542-3.22-1.851-4.047-1.406c-0.954,0.515-1.607,3.344-0.975,4.226c0.547,0.763,3.21,0.604,4.254,0.509
		c0.24-0.021,0.43-0.193,0.498-0.421l0.018-0.031L193.761,380.973z"/>
</g>
<path style="fill:#EBF0F3;" d="M287.322,358.335c-0.236-0.02-0.444,0.154-0.464,0.39l-0.1,1.148l-0.14,1.607
	c-5.979,0.039-10.736,5.227-10.051,11.354c0.361,3.239,2.311,6.017,5.018,7.602c1.191,0.697,2.513,1.187,3.937,1.345
	c6.146,0.681,11.348-4.112,11.348-10.12c0-4.017-2.331-7.48-5.71-9.139l0.297-3.396c0.021-0.236-0.154-0.443-0.39-0.464
	l-0.141-0.012l-3.437-0.3L287.322,358.335z M292.856,371.661c0,3.408-2.763,6.171-6.171,6.171c-3.408,0-6.171-2.763-6.171-6.171
	c0-3.408,2.763-6.171,6.171-6.171C290.094,365.49,292.856,368.253,292.856,371.661z"/>
<path style="fill:#D5D6DB;" d="M286.685,365.49c-3.408,0-6.171,2.763-6.171,6.171c0,3.408,2.763,6.171,6.171,6.171
	c3.408,0,6.171-2.763,6.171-6.171C292.856,368.253,290.094,365.49,286.685,365.49z M291.996,371.661c0,2.932-2.378,5.31-5.31,5.31
	c-2.933,0-5.31-2.378-5.31-5.31c0-2.933,2.378-5.31,5.31-5.31C289.618,366.351,291.996,368.729,291.996,371.661z"/>
<path style="fill:#EBF0F3;" d="M286.685,366.351c-2.933,0-5.31,2.378-5.31,5.31c0,2.932,2.378,5.31,5.31,5.31
	c2.933,0,5.31-2.378,5.31-5.31C291.996,368.729,289.618,366.351,286.685,366.351z M286.685,372.386
	c-0.401,0-0.725-0.325-0.725-0.725c0-0.4,0.325-0.726,0.725-0.726s0.726,0.326,0.726,0.726
	C287.411,372.062,287.086,372.386,286.685,372.386z"/>
<circle style="fill:#64798A;" cx="286.684" cy="371.661" r="0.727"/>
<g>
	<path style="fill:#EBF0F3;" d="M220.48,313.599v0.019l3.264,30.631l13.056-9.556l8.96-6.557l-24.632-21.369
		c-0.175,0.59-0.299,1.33-0.399,2.13c-0.148,1.183-0.224,2.558-0.238,4.085C220.489,313.193,220.48,313.386,220.48,313.599z"/>
	<path style="fill:#EBF0F3;" d="M245.76,328.137l8.96,6.557l13.056,9.556l3.262-30.613l0-0.006l0.001-0.031
		c0.002-1.409-0.043-2.712-0.145-3.862c-0.103-1.165-0.266-2.173-0.502-2.969L245.76,328.137z"/>
</g>
<path style="fill:#F6C358;" d="M270.392,306.768v-7.712c-6.512,8.618-15.137,14.43-24.632,14.43c-9.496,0-18.12-5.813-24.632-14.431
	v7.713l24.632,21.369L270.392,306.768z"/>
<g>
</g>
<g>
</g>
<g>
</g>
<g>
</g>
<g>
</g>
<g>
</g>
<g>
</g>
<g>
</g>
<g>
</g>
<g>
</g>
<g>
</g>
<g>
</g>
<g>
</g>
<g>
</g>
<g>
</g>
</svg>
